HIERARCHY
ROOT Hips
{
	OFFSET 0.000000 121.760803 0.000000
	CHANNELS 6 Xposition Yposition Zposition Xrotation Yrotation Zrotation 
	JOINT Spine
	{
		OFFSET 0.072000 7.257294 -0.789700
		CHANNELS 3 Xrotation Yrotation Zrotation
		JOINT Spine1
		{
			OFFSET 0.000000 12.508769 -0.658067
			CHANNELS 3 Xrotation Yrotation Zrotation
			JOINT Spine1_split
			{
				OFFSET 0.000000 12.508769 -0.658067
				CHANNELS 3 Xrotation Yrotation Zrotation
				JOINT Spine2
				{
					OFFSET 0.000000 12.508769 -0.658067
					CHANNELS 3 Xrotation Yrotation Zrotation
					JOINT Neck
					{
						OFFSET 0.000000 14.033295 7.520400
						CHANNELS 3 Xrotation Yrotation Zrotation
						JOINT Head
						{
							OFFSET 0.000000 8.198502 5.703100
							CHANNELS 3 Xrotation Yrotation Zrotation
							JOINT HeadTop_End
							{
								OFFSET 0.000000 17.760803 13.332701
								CHANNELS 3 Xrotation Yrotation Zrotation
								End Site
								{
									OFFSET 0.000000 0.000000 0.000000
								}
							}
						}
					}
					JOINT LeftShoulder
					{
						OFFSET 6.292450 5.785301 -0.669000
						CHANNELS 3 Xrotation Yrotation Zrotation
						JOINT LeftShoulder_split
						{
							OFFSET 6.292450 5.785301 -0.669000
							CHANNELS 3 Xrotation Yrotation Zrotation
							JOINT LeftArm
							{
								OFFSET 13.907140 -6.093903 1.965100
								CHANNELS 3 Xrotation Yrotation Zrotation
								JOINT LeftForeArm
								{
									OFFSET 34.140198 0.000000 0.000000
									CHANNELS 3 Xrotation Yrotation Zrotation
									JOINT LeftHand
									{
										OFFSET 40.960209 0.000000 0.000000
										CHANNELS 3 Xrotation Yrotation Zrotation
										JOINT LeftHandThumb1
										{
											OFFSET 10.006996 -7.170425 9.573125
											CHANNELS 3 Xrotation Yrotation Zrotation
											JOINT LeftHandThumb2
											{
												OFFSET 1.835007 -1.059448 1.059443
												CHANNELS 3 Xrotation Yrotation Zrotation
												JOINT LeftHandThumb3
												{
													OFFSET 2.112267 -1.219513 1.219518
													CHANNELS 3 Xrotation Yrotation Zrotation
													JOINT LeftHandThumb4
													{
														OFFSET 4.843811 -2.796570 2.796576
														CHANNELS 3 Xrotation Yrotation Zrotation
														End Site
														{
															OFFSET 0.000000 0.000000 0.000000
														}
													}
												}
											}
										}
										JOINT LeftHandIndex1
										{
											OFFSET 18.389847 -0.922348 4.596882
											CHANNELS 3 Xrotation Yrotation Zrotation
											JOINT LeftHandIndex2
											{
												OFFSET 4.711273 0.000000 0.000000
												CHANNELS 3 Xrotation Yrotation Zrotation
												JOINT LeftHandIndex3
												{
													OFFSET 2.886131 0.000000 0.000000
													CHANNELS 3 Xrotation Yrotation Zrotation
													JOINT LeftHandIndex4
													{
														OFFSET 6.145912 0.000000 0.000000
														CHANNELS 3 Xrotation Yrotation Zrotation
														End Site
														{
															OFFSET 0.000000 0.000000 0.000000
														}
													}
												}
											}
										}
										JOINT LeftHandMiddle1
										{
											OFFSET 18.013008 0.000000 0.000000
											CHANNELS 3 Xrotation Yrotation Zrotation
											JOINT LeftHandMiddle2
											{
												OFFSET 4.946693 0.000000 0.000000
												CHANNELS 3 Xrotation Yrotation Zrotation
												JOINT LeftHandMiddle3
												{
													OFFSET 3.342232 0.000000 0.000000
													CHANNELS 3 Xrotation Yrotation Zrotation
													JOINT LeftHandMiddle4
													{
														OFFSET 4.461754 0.000000 0.000000
														CHANNELS 3 Xrotation Yrotation Zrotation
														End Site
														{
															OFFSET 0.000000 0.000000 0.000000
														}
													}
												}
											}
										}
										JOINT LeftHandRing1
										{
											OFFSET 15.849892 -0.102921 -4.126150
											CHANNELS 3 Xrotation Yrotation Zrotation
											JOINT LeftHandRing2
											{
												OFFSET 3.527054 0.000000 0.000000
												CHANNELS 3 Xrotation Yrotation Zrotation
												JOINT LeftHandRing3
												{
													OFFSET 2.961098 0.000000 0.000000
													CHANNELS 3 Xrotation Yrotation Zrotation
													JOINT LeftHandRing4
													{
														OFFSET 4.927200 0.000000 0.000000
														CHANNELS 3 Xrotation Yrotation Zrotation
														End Site
														{
															OFFSET 0.000000 0.000000 0.000000
														}
													}
												}
											}
										}
										JOINT LeftHandPinky1
										{
											OFFSET 12.791824 -0.832031 -6.799156
											CHANNELS 3 Xrotation Yrotation Zrotation
											JOINT LeftHandPinky2
											{
												OFFSET 3.327133 0.000000 0.000000
												CHANNELS 3 Xrotation Yrotation Zrotation
												JOINT LeftHandPinky3
												{
													OFFSET 3.014900 0.000000 0.000000
													CHANNELS 3 Xrotation Yrotation Zrotation
													JOINT LeftHandPinky4
													{
														OFFSET 5.847786 0.000000 0.000000
														CHANNELS 3 Xrotation Yrotation Zrotation
														End Site
														{
															OFFSET 0.000000 0.000000 0.000000
														}
													}
												}
											}
										}
									}
								}
							}
						}
					}
					JOINT RightShoulder
					{
						OFFSET -6.292450 5.785301 -0.669000
						CHANNELS 3 Xrotation Yrotation Zrotation
						JOINT RightShoulder_split
						{
							OFFSET -6.292450 5.785301 -0.669000
							CHANNELS 3 Xrotation Yrotation Zrotation
							JOINT RightArm
							{
								OFFSET -13.907140 -6.093903 1.965100
								CHANNELS 3 Xrotation Yrotation Zrotation
								JOINT RightForeArm
								{
									OFFSET -34.140198 0.000000 0.000000
									CHANNELS 3 Xrotation Yrotation Zrotation
									JOINT RightHand
									{
										OFFSET -40.960209 0.000000 0.000000
										CHANNELS 3 Xrotation Yrotation Zrotation
										JOINT RightHandThumb1
										{
											OFFSET -10.007050 -7.170456 9.573117
											CHANNELS 3 Xrotation Yrotation Zrotation
											JOINT RightHandThumb2
											{
												OFFSET -1.835007 -1.059448 1.059443
												CHANNELS 3 Xrotation Yrotation Zrotation
												JOINT RightHandThumb3
												{
													OFFSET -2.112267 -1.219513 1.219518
													CHANNELS 3 Xrotation Yrotation Zrotation
													JOINT RightHandThumb4
													{
														OFFSET -4.843834 -2.796585 2.796590
														CHANNELS 3 Xrotation Yrotation Zrotation
														End Site
														{
															OFFSET 0.000000 0.000000 0.000000
														}
													}
												}
											}
										}
										JOINT RightHandIndex1
										{
											OFFSET -18.389870 -0.922424 4.596786
											CHANNELS 3 Xrotation Yrotation Zrotation
											JOINT RightHandIndex2
											{
												OFFSET -4.711273 0.000000 0.000000
												CHANNELS 3 Xrotation Yrotation Zrotation
												JOINT RightHandIndex3
												{
													OFFSET -2.886131 0.000000 0.000000
													CHANNELS 3 Xrotation Yrotation Zrotation
													JOINT RightHandIndex4
													{
														OFFSET -6.145920 0.000000 0.000000
														CHANNELS 3 Xrotation Yrotation Zrotation
														End Site
														{
															OFFSET 0.000000 0.000000 0.000000
														}
													}
												}
											}
										}
										JOINT RightHandMiddle1
										{
											OFFSET -18.013008 0.000000 0.000000
											CHANNELS 3 Xrotation Yrotation Zrotation
											JOINT RightHandMiddle2
											{
												OFFSET -4.946693 0.000000 0.000000
												CHANNELS 3 Xrotation Yrotation Zrotation
												JOINT RightHandMiddle3
												{
													OFFSET -3.342232 0.000000 0.000000
													CHANNELS 3 Xrotation Yrotation Zrotation
													JOINT RightHandMiddle4
													{
														OFFSET -4.461754 0.000000 0.000000
														CHANNELS 3 Xrotation Yrotation Zrotation
														End Site
														{
															OFFSET 0.000000 0.000000 0.000000
														}
													}
												}
											}
										}
										JOINT RightHandRing1
										{
											OFFSET -15.849876 -0.102936 -4.126237
											CHANNELS 3 Xrotation Yrotation Zrotation
											JOINT RightHandRing2
											{
												OFFSET -3.527054 0.000000 0.000000
												CHANNELS 3 Xrotation Yrotation Zrotation
												JOINT RightHandRing3
												{
													OFFSET -2.961098 0.000000 0.000000
													CHANNELS 3 Xrotation Yrotation Zrotation
													JOINT RightHandRing4
													{
														OFFSET -4.927200 0.000000 0.000000
														CHANNELS 3 Xrotation Yrotation Zrotation
														End Site
														{
															OFFSET 0.000000 0.000000 0.000000
														}
													}
												}
											}
										}
										JOINT RightHandPinky1
										{
											OFFSET -12.791786 -0.832077 -6.799222
											CHANNELS 3 Xrotation Yrotation Zrotation
											JOINT RightHandPinky2
											{
												OFFSET -3.327133 0.000000 0.000000
												CHANNELS 3 Xrotation Yrotation Zrotation
												JOINT RightHandPinky3
												{
													OFFSET -3.014900 0.000000 0.000000
													CHANNELS 3 Xrotation Yrotation Zrotation
													JOINT RightHandPinky4
													{
														OFFSET -5.847786 0.000000 0.000000
														CHANNELS 3 Xrotation Yrotation Zrotation
														End Site
														{
															OFFSET 0.000000 0.000000 0.000000
														}
													}
												}
											}
										}
									}
								}
							}
						}
					}
				}
			}
		}
	}
	JOINT LeftUpLeg
	{
		OFFSET 13.026900 -6.336304 -1.092800
		CHANNELS 3 Xrotation Yrotation Zrotation
		JOINT LeftLeg
		{
			OFFSET 0.524474 -46.096886 9.782700
			CHANNELS 3 Xrotation Yrotation Zrotation
			JOINT LeftFoot
			{
				OFFSET -0.524474 -53.427422 -12.948200
				CHANNELS 3 Xrotation Yrotation Zrotation
				JOINT LeftToeBase
				{
					OFFSET 0.192200 -14.009700 16.364100
					CHANNELS 3 Xrotation Yrotation Zrotation
					JOINT LeftToe_End
					{
						OFFSET -1.784700 -0.561700 9.474800
						CHANNELS 3 Xrotation Yrotation Zrotation
						End Site
						{
							OFFSET 0.000000 0.000000 0.000000
						}
					}
				}
			}
		}
	}
	JOINT RightUpLeg
	{
		OFFSET -12.883000 -6.336304 -1.092800
		CHANNELS 3 Xrotation Yrotation Zrotation
		JOINT RightLeg
		{
			OFFSET -0.524587 -46.096825 9.782800
			CHANNELS 3 Xrotation Yrotation Zrotation
			JOINT RightFoot
			{
				OFFSET 0.524587 -53.427383 -12.948300
				CHANNELS 3 Xrotation Yrotation Zrotation
				JOINT RightToeBase
				{
					OFFSET -0.192200 -14.009700 16.364100
					CHANNELS 3 Xrotation Yrotation Zrotation
					JOINT RightToe_End
					{
						OFFSET 1.784700 -0.561700 9.474800
						CHANNELS 3 Xrotation Yrotation Zrotation
						End Site
						{
							OFFSET 0.000000 0.000000 0.000000
						}
					}
				}
			}
		}
	}
}
MOTION
Frames: 5
Frame Time: 0.016667
-0.039827 116.662971 1.441094 -2.728545 3.559996 0.727193 -0.566209 -0.757072 -3.857180 1.149532 -0.103992 1.499583 0.000000 0.000000 0.000000 1.152620 -0.098084 1.497723 8.457850 0.270830 0.379498 -3.010870 1.242466 1.518414 0.000000 -0.000000 0.000000 6.883881 -26.760620 -3.764302 0.000000 0.000000 0.000000 5.911087 4.517225 -79.896377 -0.000004 -18.872938 -0.000005 -18.698678 1.922924 7.511063 -1.708912 11.916059 7.382945 4.613913 16.205063 1.361357 0.155777 9.814999 3.327201 -0.000001 0.000001 -0.000000 0.412192 2.350819 -19.887619 0.808851 3.242972 -28.002753 0.188719 1.604154 -13.418390 0.000000 0.000000 -0.000004 0.585505 2.783221 -23.755707 0.716287 3.062840 -26.319948 0.695385 3.020277 -25.926010 0.000000 -0.000001 0.000003 0.650668 2.926631 -25.063989 1.383127 4.144254 -36.899042 1.265556 3.983253 -35.240170 0.000000 0.000002 0.000000 2.588334 6.753845 -26.641465 1.376460 0.049916 -37.011152 0.758620 3.146848 -27.101508 0.000000 -0.000001 0.000001 0.447593 -3.990810 8.744687 0.000000 0.000000 0.000000 8.902102 19.263656 69.814109 0.000001 13.419888 -0.000043 -28.538465 -11.177667 5.826659 -2.036771 -12.208780 -7.947302 5.412857 -17.299269 -0.815931 -0.502643 -8.507755 -2.994152 0.000000 -0.000002 -0.000000 0.402313 -2.335093 19.548596 0.985295 -3.573151 30.823445 0.485063 -2.555990 21.487594 -0.000001 0.000000 -0.000004 0.542482 -2.697160 22.740616 1.054147 -3.685870 31.911101 1.039758 -3.662709 31.686532 0.000000 0.000000 0.000000 0.533146 -2.674803 22.541424 1.506294 -4.326612 38.375852 0.751390 -3.148930 26.835429 0.000000 0.000000 -0.000000 0.306501 -2.045506 17.041976 1.637527 -4.486875 40.083689 0.926111 -3.472237 29.860303 0.000000 -0.000000 0.000000 -2.496149 11.705256 4.700807 16.503028 -4.077089 0.978289 -11.488833 0.697301 -4.322123 -0.000110 -0.000003 -0.000003 0.000000 0.000001 0.000000 0.662051 -4.565245 -5.627721 16.856874 -9.183318 4.056999 -12.666179 -19.310883 3.443095 -0.007143 0.000002 -0.000001 0.000000 -0.000002 -0.000000 
-0.047694 116.659882 1.460111 -2.714845 3.548520 0.722266 -0.565355 -0.761753 -3.857669 1.145595 -0.104598 1.502204 0.000000 0.000000 0.000000 1.148703 -0.098714 1.500344 8.441300 0.281180 0.369448 -3.009799 1.286436 1.518969 -0.000000 0.000000 0.000000 6.880134 -26.751008 -3.764938 0.000000 0.000000 0.000000 5.911937 4.505758 -79.903603 -0.000001 -18.867738 0.000025 -18.716269 1.935618 7.508161 -1.708912 11.916061 7.382944 4.613914 16.205063 1.361356 0.155778 9.815000 3.327202 -0.000000 -0.000000 -0.000000 0.412526 2.351744 -19.895784 0.808931 3.243122 -28.004144 0.188774 1.604390 -13.420406 -0.000000 0.000000 0.000003 0.585818 2.783938 -23.762225 0.716462 3.063193 -26.323228 0.695466 3.020448 -25.927588 -0.000000 -0.000001 0.000002 0.650934 2.927204 -25.069292 1.383306 4.144497 -36.901542 1.265633 3.983364 -35.241256 -0.000000 0.000002 0.000000 2.588728 6.754095 -26.644882 1.376651 0.050169 -37.013710 0.758707 3.147014 -27.103050 0.000000 -0.000000 -0.000001 0.447803 -3.989256 8.743097 0.000000 0.000000 0.000000 8.906555 19.272806 69.810312 0.000005 13.433805 -0.000002 -28.531153 -11.162474 5.826437 -2.036770 -12.208780 -7.947295 5.412851 -17.299291 -0.815969 -0.502643 -8.507752 -2.994151 -0.000001 -0.000001 -0.000000 0.402918 -2.336783 19.563322 0.985637 -3.573721 30.828913 0.485202 -2.556348 21.490762 -0.000000 -0.000001 0.000000 0.543008 -2.698406 22.751428 1.054458 -3.686372 31.915937 1.039927 -3.662988 31.689212 -0.000000 0.000000 -0.000000 0.533448 -2.675526 22.547831 1.506555 -4.326944 38.379338 0.751422 -3.148993 26.836018 0.000000 -0.000000 -0.000000 0.306655 -2.046009 17.046298 1.637639 -4.487010 40.085137 0.926102 -3.472218 29.860132 -0.000001 -0.000000 -0.000000 -2.500568 11.708091 4.711246 16.505629 -4.070248 0.977499 -11.501126 0.699309 -4.330429 -0.000061 -0.000003 0.000001 0.000000 0.000000 -0.000000 0.658187 -4.566769 -5.624370 16.857033 -9.182393 4.064453 -12.678061 -19.298447 3.437650 -0.007448 0.000002 0.000001 0.000000 0.000000 0.000000 
-0.056309 116.657074 1.480117 -2.702010 3.537568 0.717006 -0.563545 -0.768536 -3.858316 1.142373 -0.105478 1.505870 0.000000 0.000000 0.000000 1.145511 -0.099613 1.504006 8.426181 0.289927 0.361756 -3.008405 1.323638 1.520888 -0.000000 -0.000000 -0.000000 6.876202 -26.741157 -3.765901 0.000000 0.000000 0.000000 5.916046 4.497560 -79.909798 0.000004 -18.862134 0.000015 -18.729885 1.945440 7.506023 -1.708912 11.916059 7.382945 4.613914 16.205059 1.361356 0.155776 9.814999 3.327202 -0.000001 0.000002 0.000003 0.412733 2.352312 -19.900794 0.808949 3.243157 -28.004471 0.188811 1.604537 -13.421639 -0.000000 -0.000000 -0.000003 0.586070 2.784504 -23.767330 0.716602 3.063472 -26.325820 0.695534 3.020587 -25.928861 -0.000000 -0.000000 -0.000002 0.651258 2.927886 -25.075527 1.383520 4.144782 -36.904526 1.265725 3.983490 -35.242567 0.000000 0.000001 0.000000 2.589484 6.754574 -26.651277 1.377008 0.050643 -37.018638 0.758868 3.147331 -27.106026 0.000000 -0.000001 0.000000 0.447138 -3.992708 8.741735 0.000000 0.000000 0.000000 8.916823 19.279775 69.800811 0.000001 13.450144 0.000004 -28.539988 -11.159945 5.821347 -2.036770 -12.208778 -7.947321 5.412875 -17.299375 -0.815936 -0.502643 -8.507758 -2.994151 -0.000001 -0.000003 -0.000001 0.403551 -2.338562 19.578850 0.986005 -3.574339 30.834858 0.485351 -2.556732 21.494137 -0.000000 -0.000000 0.000002 0.543657 -2.699947 22.764351 1.054833 -3.686971 31.921750 1.040131 -3.663314 31.692395 -0.000000 -0.000000 -0.000000 0.533915 -2.676647 22.557837 1.506954 -4.327448 38.384625 0.751609 -3.149360 26.839409 0.000000 0.000000 -0.000000 0.307030 -2.047218 17.056683 1.638080 -4.487535 40.090799 0.926182 -3.472357 29.861437 -0.000000 -0.000000 -0.000000 -2.503136 11.711999 4.722646 16.506781 -4.064744 0.976423 -11.513142 0.701341 -4.338872 -0.000050 0.000001 0.000001 -0.000000 -0.000000 -0.000000 0.656965 -4.567940 -5.619728 16.855633 -9.181386 4.071735 -12.690330 -19.287807 3.431687 -0.008595 -0.000003 -0.000002 0.000000 -0.000002 -0.000000 
-0.065233 116.654762 1.501182 -2.690721 3.527495 0.712172 -0.561221 -0.776976 -3.859470 1.140142 -0.106574 1.510630 0.000000 0.000000 0.000000 1.143316 -0.100721 1.508753 8.412553 0.297273 0.355596 -3.006517 1.354629 1.523624 0.000000 -0.000000 -0.000000 6.872127 -26.731019 -3.767447 0.000000 0.000000 0.000000 5.921150 4.490965 -79.912797 -0.000006 -18.857100 -0.000002 -18.728874 1.952514 7.499011 -1.708912 11.916058 7.382941 4.613914 16.205059 1.361353 0.155777 9.814998 3.327202 -0.000001 0.000006 -0.000003 0.412751 2.352362 -19.901250 0.808885 3.243036 -28.003357 0.188815 1.604551 -13.421796 -0.000000 -0.000001 -0.000001 0.586205 2.784808 -23.770114 0.716675 3.063624 -26.327229 0.695573 3.020661 -25.929584 0.000000 -0.000000 -0.000001 0.651601 2.928623 -25.082277 1.383755 4.145090 -36.907788 1.265824 3.983632 -35.243978 0.000000 0.000000 0.000000 2.590593 6.755277 -26.660711 1.377532 0.051337 -37.025909 0.759111 3.147804 -27.110407 -0.000000 0.000001 0.000001 0.445813 -3.999972 8.740760 0.000000 0.000000 0.000000 8.930332 19.284669 69.787403 -0.000003 13.466609 -0.000012 -28.561256 -11.168560 5.813782 -2.036770 -12.208777 -7.947276 5.412869 -17.299512 -0.815986 -0.502644 -8.507754 -2.994152 -0.000000 0.000002 0.000000 0.404192 -2.340366 19.594594 0.986387 -3.574978 30.840964 0.485515 -2.557144 21.497795 -0.000001 0.000000 0.000001 0.544394 -2.701698 22.778706 1.055262 -3.687658 31.928430 1.040359 -3.663680 31.695937 -0.000000 0.000000 -0.000000 0.534506 -2.678070 22.570507 1.507457 -4.328080 38.391278 0.751837 -3.149816 26.843600 -0.000000 -0.000000 -0.000000 0.307576 -2.049006 17.072051 1.638683 -4.488246 40.098470 0.926440 -3.472809 29.865723 -0.000000 -0.000000 -0.000000 -2.502639 11.716060 4.733310 16.506161 -4.059791 0.976085 -11.524840 0.703447 -4.347805 -0.000137 0.000001 0.000001 -0.000000 -0.000000 0.000000 0.659597 -4.569417 -5.614350 16.851762 -9.181183 4.078574 -12.702462 -19.279175 3.425528 -0.011504 0.000000 0.000001 0.000000 0.000000 -0.000000 
-0.074068 116.653038 1.523222 -2.680940 3.518151 0.708130 -0.559887 -0.786118 -3.861152 1.139016 -0.107763 1.516219 0.000000 0.000000 0.000000 1.142232 -0.101915 1.514326 8.400877 0.302968 0.350914 -3.003914 1.378162 1.526990 0.000000 -0.000000 -0.000000 6.868263 -26.720788 -3.769766 0.000000 0.000000 0.000000 5.924320 4.484671 -79.910099 0.000002 -18.854213 -0.000015 -18.698633 1.956466 7.480605 -1.708913 11.916058 7.382943 4.613913 16.205061 1.361356 0.155777 9.814997 3.327205 0.000001 0.000004 -0.000001 0.412561 2.351841 -19.896635 0.808734 3.242750 -28.000666 0.188783 1.604428 -13.420699 -0.000001 -0.000000 0.000001 0.586192 2.784783 -23.769898 0.716674 3.063617 -26.327162 0.695571 3.020663 -25.929584 0.000000 -0.000001 0.000003 0.651926 2.929321 -25.088675 1.383978 4.145387 -36.910841 1.265917 3.983761 -35.245368 0.000000 -0.000001 0.000000 2.591941 6.756132 -26.672152 1.378177 0.052191 -37.034737 0.759409 3.148386 -27.115849 0.000000 0.000000 0.000000 0.444131 -4.009369 8.740161 0.000000 0.000000 0.000000 8.941825 19.288169 69.773190 0.000007 13.479136 -0.000024 -28.575497 -11.177166 5.810632 -2.036767 -12.208774 -7.947292 5.412901 -17.299717 -0.815953 -0.502643 -8.507750 -2.994152 -0.000001 0.000000 -0.000000 0.404787 -2.342040 19.609205 0.986769 -3.575619 30.847129 0.485689 -2.557585 21.501692 0.000000 0.000000 -0.000001 0.545177 -2.703565 22.793671 1.055732 -3.688412 31.935748 1.040605 -3.664083 31.699827 0.000001 0.000000 0.000000 0.535180 -2.679686 22.584902 1.508025 -4.328798 38.398832 0.752095 -3.150325 26.848301 -0.000000 0.000000 -0.000000 0.308238 -2.051155 17.090523 1.639366 -4.489057 40.107219 0.926747 -3.473342 29.870777 -0.000000 0.000000 -0.000000 -2.498398 11.719270 4.741858 16.502879 -4.054046 0.977476 -11.535833 0.705689 -4.357722 -0.000015 0.000002 0.000000 -0.000000 0.000000 0.000000 0.665508 -4.571791 -5.608952 16.846144 -9.182295 4.085277 -12.714584 -19.271814 3.419298 -0.016676 0.000005 -0.000002 0.000000 -0.000002 -0.000000 
